<?xml version="1.0" standalone="no"?>
<svg xmlns:xlink="http://www.w3.org/1999/xlink" id="wave" style="transform:rotate(180deg); transition: 0.3s" viewBox="0 0 1440 490" version="1.1" xmlns="http://www.w3.org/2000/svg"><defs><linearGradient id="sw-gradient-0" x1="0" x2="0" y1="1" y2="0"><stop stop-color="rgba(209, 209, 209, 1)" offset="0%"/><stop stop-color="rgba(9, 69, 108, 1)" offset="100%"/></linearGradient></defs><path style="transform:translate(0, 0px); opacity:1" fill="url(#sw-gradient-0)" d="M0,98L60,147C120,196,240,294,360,302.2C480,310,600,229,720,228.7C840,229,960,310,1080,326.7C1200,343,1320,294,1440,245C1560,196,1680,147,1800,171.5C1920,196,2040,294,2160,351.2C2280,408,2400,425,2520,432.8C2640,441,2760,441,2880,375.7C3000,310,3120,180,3240,155.2C3360,131,3480,212,3600,245C3720,278,3840,261,3960,269.5C4080,278,4200,310,4320,269.5C4440,229,4560,114,4680,65.3C4800,16,4920,33,5040,81.7C5160,131,5280,212,5400,236.8C5520,261,5640,229,5760,196C5880,163,6000,131,6120,98C6240,65,6360,33,6480,81.7C6600,131,6720,261,6840,269.5C6960,278,7080,163,7200,106.2C7320,49,7440,49,7560,89.8C7680,131,7800,212,7920,236.8C8040,261,8160,229,8280,179.7C8400,131,8520,65,8580,32.7L8640,0L8640,490L8580,490C8520,490,8400,490,8280,490C8160,490,8040,490,7920,490C7800,490,7680,490,7560,490C7440,490,7320,490,7200,490C7080,490,6960,490,6840,490C6720,490,6600,490,6480,490C6360,490,6240,490,6120,490C6000,490,5880,490,5760,490C5640,490,5520,490,5400,490C5280,490,5160,490,5040,490C4920,490,4800,490,4680,490C4560,490,4440,490,4320,490C4200,490,4080,490,3960,490C3840,490,3720,490,3600,490C3480,490,3360,490,3240,490C3120,490,3000,490,2880,490C2760,490,2640,490,2520,490C2400,490,2280,490,2160,490C2040,490,1920,490,1800,490C1680,490,1560,490,1440,490C1320,490,1200,490,1080,490C960,490,840,490,720,490C600,490,480,490,360,490C240,490,120,490,60,490L0,490Z"/><defs><linearGradient id="sw-gradient-1" x1="0" x2="0" y1="1" y2="0"><stop stop-color="rgba(209, 209, 209, 1)" offset="0%"/><stop stop-color="rgba(9, 69, 108, 1)" offset="100%"/></linearGradient></defs><path style="transform:translate(0, 50px); opacity:0.9" fill="url(#sw-gradient-1)" d="M0,343L60,334.8C120,327,240,310,360,294C480,278,600,261,720,212.3C840,163,960,82,1080,57.2C1200,33,1320,65,1440,89.8C1560,114,1680,131,1800,171.5C1920,212,2040,278,2160,310.3C2280,343,2400,343,2520,359.3C2640,376,2760,408,2880,408.3C3000,408,3120,376,3240,334.8C3360,294,3480,245,3600,236.8C3720,229,3840,261,3960,302.2C4080,343,4200,392,4320,400.2C4440,408,4560,376,4680,334.8C4800,294,4920,245,5040,236.8C5160,229,5280,261,5400,269.5C5520,278,5640,261,5760,269.5C5880,278,6000,310,6120,302.2C6240,294,6360,245,6480,204.2C6600,163,6720,131,6840,155.2C6960,180,7080,261,7200,269.5C7320,278,7440,212,7560,212.3C7680,212,7800,278,7920,285.8C8040,294,8160,245,8280,204.2C8400,163,8520,131,8580,114.3L8640,98L8640,490L8580,490C8520,490,8400,490,8280,490C8160,490,8040,490,7920,490C7800,490,7680,490,7560,490C7440,490,7320,490,7200,490C7080,490,6960,490,6840,490C6720,490,6600,490,6480,490C6360,490,6240,490,6120,490C6000,490,5880,490,5760,490C5640,490,5520,490,5400,490C5280,490,5160,490,5040,490C4920,490,4800,490,4680,490C4560,490,4440,490,4320,490C4200,490,4080,490,3960,490C3840,490,3720,490,3600,490C3480,490,3360,490,3240,490C3120,490,3000,490,2880,490C2760,490,2640,490,2520,490C2400,490,2280,490,2160,490C2040,490,1920,490,1800,490C1680,490,1560,490,1440,490C1320,490,1200,490,1080,490C960,490,840,490,720,490C600,490,480,490,360,490C240,490,120,490,60,490L0,490Z"/><defs><linearGradient id="sw-gradient-2" x1="0" x2="0" y1="1" y2="0"><stop stop-color="rgba(209, 209, 209, 1)" offset="0%"/><stop stop-color="rgba(9, 69, 108, 1)" offset="100%"/></linearGradient></defs><path style="transform:translate(0, 100px); opacity:0.8" fill="url(#sw-gradient-2)" d="M0,294L60,261.3C120,229,240,163,360,130.7C480,98,600,98,720,89.8C840,82,960,65,1080,65.3C1200,65,1320,82,1440,114.3C1560,147,1680,196,1800,187.8C1920,180,2040,114,2160,114.3C2280,114,2400,180,2520,187.8C2640,196,2760,147,2880,130.7C3000,114,3120,131,3240,114.3C3360,98,3480,49,3600,65.3C3720,82,3840,163,3960,187.8C4080,212,4200,180,4320,204.2C4440,229,4560,310,4680,285.8C4800,261,4920,131,5040,98C5160,65,5280,131,5400,138.8C5520,147,5640,98,5760,106.2C5880,114,6000,180,6120,179.7C6240,180,6360,114,6480,130.7C6600,147,6720,245,6840,285.8C6960,327,7080,310,7200,318.5C7320,327,7440,359,7560,310.3C7680,261,7800,131,7920,114.3C8040,98,8160,196,8280,204.2C8400,212,8520,131,8580,89.8L8640,49L8640,490L8580,490C8520,490,8400,490,8280,490C8160,490,8040,490,7920,490C7800,490,7680,490,7560,490C7440,490,7320,490,7200,490C7080,490,6960,490,6840,490C6720,490,6600,490,6480,490C6360,490,6240,490,6120,490C6000,490,5880,490,5760,490C5640,490,5520,490,5400,490C5280,490,5160,490,5040,490C4920,490,4800,490,4680,490C4560,490,4440,490,4320,490C4200,490,4080,490,3960,490C3840,490,3720,490,3600,490C3480,490,3360,490,3240,490C3120,490,3000,490,2880,490C2760,490,2640,490,2520,490C2400,490,2280,490,2160,490C2040,490,1920,490,1800,490C1680,490,1560,490,1440,490C1320,490,1200,490,1080,490C960,490,840,490,720,490C600,490,480,490,360,490C240,490,120,490,60,490L0,490Z"/><defs><linearGradient id="sw-gradient-3" x1="0" x2="0" y1="1" y2="0"><stop stop-color="rgba(9, 69, 108, 1)" offset="0%"/><stop stop-color="rgba(209, 209, 209, 1)" offset="100%"/></linearGradient></defs><path style="transform:translate(0, 150px); opacity:0.7" fill="url(#sw-gradient-3)" d="M0,441L60,416.5C120,392,240,343,360,302.2C480,261,600,229,720,212.3C840,196,960,196,1080,228.7C1200,261,1320,327,1440,359.3C1560,392,1680,392,1800,367.5C1920,343,2040,294,2160,285.8C2280,278,2400,310,2520,294C2640,278,2760,212,2880,187.8C3000,163,3120,180,3240,155.2C3360,131,3480,65,3600,49C3720,33,3840,65,3960,73.5C4080,82,4200,65,4320,49C4440,33,4560,16,4680,8.2C4800,0,4920,0,5040,57.2C5160,114,5280,229,5400,253.2C5520,278,5640,212,5760,196C5880,180,6000,212,6120,253.2C6240,294,6360,343,6480,343C6600,343,6720,294,6840,261.3C6960,229,7080,212,7200,236.8C7320,261,7440,327,7560,326.7C7680,327,7800,261,7920,228.7C8040,196,8160,196,8280,187.8C8400,180,8520,163,8580,155.2L8640,147L8640,490L8580,490C8520,490,8400,490,8280,490C8160,490,8040,490,7920,490C7800,490,7680,490,7560,490C7440,490,7320,490,7200,490C7080,490,6960,490,6840,490C6720,490,6600,490,6480,490C6360,490,6240,490,6120,490C6000,490,5880,490,5760,490C5640,490,5520,490,5400,490C5280,490,5160,490,5040,490C4920,490,4800,490,4680,490C4560,490,4440,490,4320,490C4200,490,4080,490,3960,490C3840,490,3720,490,3600,490C3480,490,3360,490,3240,490C3120,490,3000,490,2880,490C2760,490,2640,490,2520,490C2400,490,2280,490,2160,490C2040,490,1920,490,1800,490C1680,490,1560,490,1440,490C1320,490,1200,490,1080,490C960,490,840,490,720,490C600,490,480,490,360,490C240,490,120,490,60,490L0,490Z"/></svg>